<svg width="15" height="16" viewBox="0 0 15 16" fill="none" xmlns="http://www.w3.org/2000/svg">
<path d="M12.125 13.6254C12.475 13.6254 12.65 13.6254 12.7837 13.5573C12.9013 13.4973 12.997 13.4017 13.0569 13.2841C13.125 13.1504 13.125 12.9754 13.125 12.6254V12.1254C13.125 11.7753 13.125 11.6003 13.0569 11.4666C12.997 11.349 12.9013 11.2534 12.7837 11.1935C12.65 11.1254 12.475 11.1254 12.125 11.1254H2.875C2.52497 11.1254 2.34995 11.1254 2.21626 11.1935C2.09865 11.2534 2.00304 11.349 1.94312 11.4666C1.875 11.6003 1.875 11.7753 1.875 12.1254L1.875 12.6254C1.875 12.9754 1.875 13.1504 1.94312 13.2841C2.00304 13.4017 2.09865 13.4973 2.21626 13.5573C2.34995 13.6254 2.52497 13.6254 2.875 13.6254H12.125Z" fill="#FC8600"/>
<path d="M12.125 6.12538C12.475 6.12538 12.65 6.12538 12.7837 6.05726C12.9013 5.99734 12.997 5.90172 13.0569 5.78412C13.125 5.65043 13.125 5.47541 13.125 5.12538V4.42755C13.125 4.14132 13.125 3.99821 13.0743 3.88011C13.0295 3.77594 12.9573 3.6859 12.8653 3.61963C12.7611 3.5445 12.6213 3.51346 12.3419 3.45136L7.71693 2.42359C7.63598 2.4056 7.5955 2.3966 7.5546 2.39301C7.51827 2.38983 7.48173 2.38983 7.4454 2.39301C7.4045 2.3966 7.36402 2.4056 7.28307 2.42359L2.65807 3.45136C2.37866 3.51345 2.23895 3.5445 2.13467 3.61963C2.04268 3.6859 1.97045 3.77594 1.92572 3.88011C1.875 3.99821 1.875 4.14132 1.875 4.42755L1.875 5.12538C1.875 5.47541 1.875 5.65043 1.94312 5.78412C2.00304 5.90172 2.09865 5.99734 2.21626 6.05726C2.34995 6.12538 2.52497 6.12538 2.875 6.12538H12.125Z" fill="#FC8600"/>
<path d="M3.125 6.12538V11.1254M5.9375 6.12538V11.1254M9.0625 6.12538V11.1254M11.875 6.12538V11.1254M1.875 12.1254L1.875 12.6254C1.875 12.9754 1.875 13.1504 1.94312 13.2841C2.00304 13.4017 2.09865 13.4973 2.21626 13.5573C2.34995 13.6254 2.52497 13.6254 2.875 13.6254H12.125C12.475 13.6254 12.65 13.6254 12.7837 13.5573C12.9013 13.4973 12.997 13.4017 13.0569 13.2841C13.125 13.1504 13.125 12.9754 13.125 12.6254V12.1254C13.125 11.7753 13.125 11.6003 13.0569 11.4666C12.997 11.349 12.9013 11.2534 12.7837 11.1935C12.65 11.1254 12.475 11.1254 12.125 11.1254H2.875C2.52497 11.1254 2.34995 11.1254 2.21626 11.1935C2.09865 11.2534 2.00304 11.349 1.94312 11.4666C1.875 11.6003 1.875 11.7753 1.875 12.1254ZM7.28307 2.42359L2.65807 3.45136C2.37866 3.51345 2.23895 3.5445 2.13467 3.61963C2.04268 3.6859 1.97045 3.77594 1.92572 3.88011C1.875 3.99821 1.875 4.14132 1.875 4.42755L1.875 5.12538C1.875 5.47541 1.875 5.65043 1.94312 5.78412C2.00304 5.90172 2.09865 5.99734 2.21626 6.05726C2.34995 6.12538 2.52497 6.12538 2.875 6.12538H12.125C12.475 6.12538 12.65 6.12538 12.7837 6.05726C12.9013 5.99734 12.997 5.90172 13.0569 5.78412C13.125 5.65043 13.125 5.47541 13.125 5.12538V4.42755C13.125 4.14132 13.125 3.99821 13.0743 3.88011C13.0295 3.77594 12.9573 3.6859 12.8653 3.61963C12.7611 3.5445 12.6213 3.51346 12.3419 3.45136L7.71693 2.42359C7.63598 2.4056 7.5955 2.3966 7.5546 2.39301C7.51827 2.38983 7.48173 2.38983 7.4454 2.39301C7.4045 2.3966 7.36402 2.4056 7.28307 2.42359Z" stroke="#FC8600" stroke-linecap="round" stroke-linejoin="round"/>
</svg>
