<svg width="15" height="16" viewBox="0 0 15 16" fill="none" xmlns="http://www.w3.org/2000/svg">
<path d="M7.5 4.875L8.46563 6.83125L10.625 7.14687L9.0625 8.66875L9.43125 10.8187L7.5 9.80312L5.56875 10.8187L5.9375 8.66875L4.375 7.14687L6.53437 6.83125L7.5 4.875Z" fill="#FFE521"/>
<path d="M13.75 8H12.5M11.9193 12.4194L11.0355 11.5355M2.5 8H1.25M3.96433 4.46448L3.08044 3.5806M7.5 3V1.75M11.0355 4.46448L11.9193 3.5806M7.5 14.25V13M3.08044 12.4194L3.96433 11.5355M7.5 4.875L8.46563 6.83125L10.625 7.14687L9.0625 8.66875L9.43125 10.8187L7.5 9.80312L5.56875 10.8187L5.9375 8.66875L4.375 7.14687L6.53437 6.83125L7.5 4.875Z" stroke="#FFE521" stroke-linecap="round" stroke-linejoin="round"/>
</svg>
