<svg width="15" height="16" viewBox="0 0 15 16" fill="none" xmlns="http://www.w3.org/2000/svg">
<path d="M1.25 4.25C1.625 4.5625 2 4.875 2.8125 4.875C4.375 4.875 4.375 3.625 5.9375 3.625C6.75 3.625 7.125 3.9375 7.5 4.25C7.875 4.5625 8.25 4.875 9.0625 4.875C10.625 4.875 10.625 3.625 12.1875 3.625C13 3.625 13.375 3.9375 13.75 4.25M1.25 11.75C1.625 12.0625 2 12.375 2.8125 12.375C4.375 12.375 4.375 11.125 5.9375 11.125C6.75 11.125 7.125 11.4375 7.5 11.75C7.875 12.0625 8.25 12.375 9.0625 12.375C10.625 12.375 10.625 11.125 12.1875 11.125C13 11.125 13.375 11.4375 13.75 11.75M1.25 8C1.625 8.3125 2 8.625 2.8125 8.625C4.375 8.625 4.375 7.375 5.9375 7.375C6.75 7.375 7.125 7.6875 7.5 8C7.875 8.3125 8.25 8.625 9.0625 8.625C10.625 8.625 10.625 7.375 12.1875 7.375C13 7.375 13.375 7.6875 13.75 8" stroke="#1FD5F8" stroke-linecap="round" stroke-linejoin="round"/>
</svg>
