<svg width="15" height="16" viewBox="0 0 15 16" fill="none" xmlns="http://www.w3.org/2000/svg">
<path d="M9.36529 14C10.3705 14 10.8731 14 11.2425 13.7986C11.5669 13.6216 11.8225 13.3409 11.9684 13.0014C12.1345 12.6148 12.0876 12.1144 11.9938 11.1136L11.6638 7.59358C11.5845 6.74844 11.5449 6.32587 11.3549 6.00639C11.1875 5.72502 10.9401 5.49981 10.6444 5.35941C10.3086 5.2 9.88413 5.2 9.03529 5.2L5.04344 5.2C4.19459 5.2 3.77017 5.2 3.43434 5.35941C3.13858 5.49981 2.89127 5.72502 2.72388 6.00639C2.53381 6.32587 2.4942 6.74844 2.41497 7.59358L2.08497 11.1136C1.99114 12.1144 1.94422 12.6148 2.11029 13.0014C2.25618 13.3409 2.51183 13.6216 2.83627 13.7986C3.2056 14 3.70822 14 4.71344 14H9.36529Z" fill="#FD347E"/>
<path d="M9.23936 6.85V5.2C9.23936 3.98497 8.25439 3 7.03936 3C5.82434 3 4.83936 3.98497 4.83936 5.2V6.85M2.41497 7.59358L2.08497 11.1136C1.99114 12.1144 1.94422 12.6148 2.11029 13.0014C2.25618 13.3409 2.51183 13.6216 2.83627 13.7986C3.2056 14 3.70822 14 4.71344 14H9.36529C10.3705 14 10.8731 14 11.2425 13.7986C11.5669 13.6216 11.8226 13.3409 11.9684 13.0014C12.1345 12.6148 12.0876 12.1144 11.9938 11.1136L11.6638 7.59358C11.5845 6.74844 11.5449 6.32587 11.3549 6.00639C11.1875 5.72502 10.9401 5.49981 10.6444 5.35941C10.3086 5.2 9.88413 5.2 9.03529 5.2L5.04344 5.2C4.19459 5.2 3.77017 5.2 3.43434 5.35941C3.13858 5.49981 2.89127 5.72502 2.72388 6.00639C2.53381 6.32587 2.4942 6.74844 2.41497 7.59358Z" stroke="#FD347E" stroke-linecap="round" stroke-linejoin="round"/>
</svg>
