<svg width="15" height="16" viewBox="0 0 15 16" fill="none" xmlns="http://www.w3.org/2000/svg">
<path d="M7.5 11.125V2.375Z" fill="#33D900"/>
<path d="M7.5 7.0625L10.7986 5.28634C11.0492 5.15139 11.1745 5.08391 11.2185 4.99232C11.2569 4.91244 11.2596 4.82 11.2259 4.73803C11.1872 4.64406 11.066 4.56946 10.8236 4.42028L7.5 2.375" fill="#33D900"/>
<path d="M10 8.85902C12.2074 9.29303 13.75 10.2842 13.75 11.4375C13.75 12.9908 10.9518 14.25 7.5 14.25C4.04822 14.25 1.25 12.9908 1.25 11.4375C1.25 10.2842 2.79262 9.29303 5 8.85902M7.5 11.125V2.375L10.8236 4.42028C11.066 4.56946 11.1872 4.64406 11.2259 4.73803C11.2596 4.82 11.2569 4.91244 11.2185 4.99232C11.1745 5.08391 11.0492 5.15139 10.7986 5.28634L7.5 7.0625" stroke="#33D900" stroke-linecap="round" stroke-linejoin="round"/>
</svg>
